# xmcd CD database file
#
# Track frame offsets:
#	150
#	18485
#	33685
#	47985
#	61551
#	90361
#	103197
#	120199
#	136634
#	155686
#	171042
#	188478
#	206077
#	219545
#	238352
#
# Disc length: 3529 seconds
#
# Revision: 0
# Processed by: cddbd v1.5.1PL2 Copyright (c) Steve Scherf et al.
# Submitted via: CDex 1.50
#
DISCID=c70dc70f
DTITLE=Johnny Chester - Get A Little Dirt On Your Hands
DYEAR=2005
DGENRE=Country
TTITLE0=Get A Little Dirt On Your Hands
TTITLE1=So Far So Good
TTITLE2=Jessica
TTITLE3=There's A Shadow On The Moon Tonight
TTITLE4=Playing The Game
TTITLE5=Love Ain't Right
TTITLE6=Lost Love
TTITLE7=The Way Old Friends Do
TTITLE8=Home Again
TTITLE9=You've Got Yourself A Job Again
TTITLE10=Roadside Dinah
TTITLE11=They Called It Rock 'n Roll
TTITLE12=Laying My Love On the Line
TTITLE13=He's A Rodeo Man
TTITLE14=The Spirit Of the Land
EXTD=YEAR: 2005
EXTT0=
EXTT1=
EXTT2=
EXTT3=
EXTT4=
EXTT5=
EXTT6=
EXTT7=
EXTT8=
EXTT9=
EXTT10=
EXTT11=
EXTT12=
EXTT13=
EXTT14=
PLAYORDER=
